<svg xmlns="http://www.w3.org/2000/svg" width="80" height="80" fill="none"><circle cx="40" cy="40" r="40" fill="#4888FF"/><circle cx="40" cy="40" r="35" fill="#4888FF"/><path fill="#fff" d="M40.5 59.292a18.668 18.668 0 0 0 13.287-5.505 1.708 1.708 0 0 0 0-2.415L42.916 40.5l10.871-10.872a1.708 1.708 0 0 0 0-2.415 18.79 18.79 0 0 0-31.989 15.13A18.792 18.792 0 0 0 40.5 59.291Zm0-34.167a15.26 15.26 0 0 1 9.597 3.36L39.292 39.292a1.708 1.708 0 0 0 0 2.416l10.805 10.807a15.374 15.374 0 1 1-9.597-27.39ZM59.292 40.5a3.417 3.417 0 1 1-6.834 0 3.417 3.417 0 0 1 6.834 0Zm-25.625-8.542a3.417 3.417 0 1 1 6.834 0 3.417 3.417 0 0 1-6.834 0Z"/></svg>